<svg xmlns="http://www.w3.org/2000/svg" aria-hidden="true" style="position:absolute;width:0;height:0;overflow:hidden">
  <defs>
    <symbol id="icon-SEO" viewBox="0 0 32 32">
      <path fill="#e5e5e5" d="M16 21.333a5.333 5.333 0 1 0 0-10.667 5.333 5.333 0 0 0 0 10.667z" style="fill:var(--color1, #e5e5e5)"/>
      <path fill="#fca311" d="m24 4-2.667 2.667v4h4L28 8l-2.667-1.333L24 4z" style="fill:var(--color2, #fca311)"/>
      <path fill="none" stroke="#14213d" stroke-linecap="round" stroke-linejoin="round" stroke-width="2" d="M28 16a12.007 12.007 0 0 1-7.407 11.087 11.992 11.992 0 0 1-13.077-2.601 11.999 11.999 0 0 1 8.486-20.484l12 12zm-12-5.333a5.333 5.333 0 1 0 2.043 10.262 5.331 5.331 0 0 0 3.292-4.927l-5.333-5.333zM16 16v0zm8-12-2.667 2.667v4h4L28 8l-2.667-1.333L24 4z" style="stroke:var(--color3, #14213d)"/>
    </symbol>
    <symbol id="icon-Design-Services" viewBox="0 0 32 32">
      <path fill="#e5e5e5" d="M28 12H4V8h24v4zm0 14.667v-9.333H4v9.333A1.33 1.33 0 0 0 5.334 28h21.333A1.333 1.333 0 0 0 28 26.667z" style="fill:var(--color1, #e5e5e5)"/>
      <path fill="none" stroke="#14213d" stroke-linecap="round" stroke-linejoin="round" stroke-width="2" d="M20 12v16m6.667 0H5.334A1.333 1.333 0 0 1 4 26.667V5.334A1.335 1.335 0 0 1 5.334 4h21.333A1.33 1.33 0 0 1 28 5.334v21.333A1.333 1.333 0 0 1 26.667 28zM4 12v0z" style="stroke:var(--color3, #14213d)"/>
    </symbol>
    <symbol id="icon-Security-Tester" viewBox="0 0 32 32">
      <path fill="#e5e5e5" d="M25.92 16.067a14.668 14.668 0 0 1-8.747 11.427L16 28.001l-1.173-.507c-2.317-.992-4.339-2.565-5.871-4.567s-2.522-4.364-2.876-6.86a15.83 15.83 0 0 0 8.587 7.427l1.333.507 1.333-.507a15.826 15.826 0 0 0 8.587-7.427z" style="fill:var(--color1, #e5e5e5)"/>
      <path fill="none" stroke="#14213d" stroke-linecap="round" stroke-linejoin="round" stroke-width="2" d="M25.573 6.4 16 4 6.427 6.4a1.33 1.33 0 0 0-1.013 1.334l.573 7.36a14.66 14.66 0 0 0 8.84 12.346L16 28l1.173-.507a14.663 14.663 0 0 0 8.84-12.346l.573-7.36a1.333 1.333 0 0 0-1.014-1.386v0z" style="stroke:var(--color3, #14213d)"/>
      <path fill="none" stroke="#fca311" stroke-linecap="round" stroke-linejoin="round" stroke-width="2" d="m12 14.667 2.667 2.667L20 12.001" style="stroke:var(--color2, #fca311)"/>
    </symbol>
    <symbol id="icon-ball" viewBox="0 0 32 32">
      <path fill="#fca311" d="M32 16c0 8.837-7.163 16-16 16S0 24.837 0 16 7.163 0 16 0s16 7.163 16 16z" style="fill:var(--color2, #fca311)"/>
    </symbol>
    <symbol id="icon-Dot-Grid" viewBox="0 0 32 32">
      <path d="M.96.48a.48.48 0 1 1-.96 0 .48.48 0 0 1 .96 0zM3.36.48a.48.48 0 1 1-.96 0 .48.48 0 0 1 .96 0zM5.76.48a.48.48 0 1 1-.96 0 .48.48 0 0 1 .96 0zM8.16.48a.48.48 0 1 1-.96 0 .48.48 0 0 1 .96 0zM10.56.48a.48.48 0 1 1-.96 0 .48.48 0 0 1 .96 0zM12.96.48a.48.48 0 1 1-.96 0 .48.48 0 0 1 .96 0zM15.36.48a.48.48 0 1 1-.96 0 .48.48 0 0 1 .96 0zM17.76.48a.48.48 0 1 1-.96 0 .48.48 0 0 1 .96 0zM20.16.48a.48.48 0 1 1-.96 0 .48.48 0 0 1 .96 0zM22.56.48a.48.48 0 1 1-.96 0 .48.48 0 0 1 .96 0zM24.96.48a.48.48 0 1 1-.96 0 .48.48 0 0 1 .96 0zM27.36.48a.48.48 0 1 1-.96 0 .48.48 0 0 1 .96 0zM29.76.48a.48.48 0 1 1-.96 0 .48.48 0 0 1 .96 0zM.96 2.88a.48.48 0 1 1-.96 0 .48.48 0 0 1 .96 0zM3.36 2.88a.48.48 0 1 1-.96 0 .48.48 0 0 1 .96 0zM5.76 2.88a.48.48 0 1 1-.96 0 .48.48 0 0 1 .96 0zM8.16 2.88a.48.48 0 1 1-.96 0 .48.48 0 0 1 .96 0zM10.56 2.88a.48.48 0 1 1-.96 0 .48.48 0 0 1 .96 0zM12.96 2.88a.48.48 0 1 1-.96 0 .48.48 0 0 1 .96 0zM15.36 2.88a.48.48 0 1 1-.96 0 .48.48 0 0 1 .96 0zM17.76 2.88a.48.48 0 1 1-.96 0 .48.48 0 0 1 .96 0zM20.16 2.88a.48.48 0 1 1-.96 0 .48.48 0 0 1 .96 0zM22.56 2.88a.48.48 0 1 1-.96 0 .48.48 0 0 1 .96 0zM24.96 2.88a.48.48 0 1 1-.96 0 .48.48 0 0 1 .96 0zM27.36 2.88a.48.48 0 1 1-.96 0 .48.48 0 0 1 .96 0zM29.76 2.88a.48.48 0 1 1-.96 0 .48.48 0 0 1 .96 0zM.96 5.28a.48.48 0 1 1-.96 0 .48.48 0 0 1 .96 0zM3.36 5.28a.48.48 0 1 1-.96 0 .48.48 0 0 1 .96 0zM5.76 5.28a.48.48 0 1 1-.96 0 .48.48 0 0 1 .96 0zM8.16 5.28a.48.48 0 1 1-.96 0 .48.48 0 0 1 .96 0zM10.56 5.28a.48.48 0 1 1-.96 0 .48.48 0 0 1 .96 0zM12.96 5.28a.48.48 0 1 1-.96 0 .48.48 0 0 1 .96 0zM15.36 5.28a.48.48 0 1 1-.96 0 .48.48 0 0 1 .96 0zM17.76 5.28a.48.48 0 1 1-.96 0 .48.48 0 0 1 .96 0zM20.16 5.28a.48.48 0 1 1-.96 0 .48.48 0 0 1 .96 0zM22.56 5.28a.48.48 0 1 1-.96 0 .48.48 0 0 1 .96 0zM24.96 5.28a.48.48 0 1 1-.96 0 .48.48 0 0 1 .96 0zM27.36 5.28a.48.48 0 1 1-.96 0 .48.48 0 0 1 .96 0zM29.76 5.28a.48.48 0 1 1-.96 0 .48.48 0 0 1 .96 0zM.96 7.68a.48.48 0 1 1-.96 0 .48.48 0 0 1 .96 0zM3.36 7.68a.48.48 0 1 1-.96 0 .48.48 0 0 1 .96 0zM5.76 7.68a.48.48 0 1 1-.96 0 .48.48 0 0 1 .96 0zM8.16 7.68a.48.48 0 1 1-.96 0 .48.48 0 0 1 .96 0zM10.56 7.68a.48.48 0 1 1-.96 0 .48.48 0 0 1 .96 0zM12.96 7.68a.48.48 0 1 1-.96 0 .48.48 0 0 1 .96 0zM15.36 7.68a.48.48 0 1 1-.96 0 .48.48 0 0 1 .96 0zM17.76 7.68a.48.48 0 1 1-.96 0 .48.48 0 0 1 .96 0zM20.16 7.68a.48.48 0 1 1-.96 0 .48.48 0 0 1 .96 0zM22.56 7.68a.48.48 0 1 1-.96 0 .48.48 0 0 1 .96 0zM24.96 7.68a.48.48 0 1 1-.96 0 .48.48 0 0 1 .96 0zM27.36 7.68a.48.48 0 1 1-.96 0 .48.48 0 0 1 .96 0zM29.76 7.68a.48.48 0 1 1-.96 0 .48.48 0 0 1 .96 0zM.96 10.08a.48.48 0 1 1-.96 0 .48.48 0 0 1 .96 0zM3.36 10.08a.48.48 0 1 1-.96 0 .48.48 0 0 1 .96 0zM5.76 10.08a.48.48 0 1 1-.96 0 .48.48 0 0 1 .96 0zM8.16 10.08a.48.48 0 1 1-.96 0 .48.48 0 0 1 .96 0zM10.56 10.08a.48.48 0 1 1-.96 0 .48.48 0 0 1 .96 0zM12.96 10.08a.48.48 0 1 1-.96 0 .48.48 0 0 1 .96 0zM15.36 10.08a.48.48 0 1 1-.96 0 .48.48 0 0 1 .96 0zM17.76 10.08a.48.48 0 1 1-.96 0 .48.48 0 0 1 .96 0zM20.16 10.08a.48.48 0 1 1-.96 0 .48.48 0 0 1 .96 0zM22.56 10.08a.48.48 0 1 1-.96 0 .48.48 0 0 1 .96 0zM24.96 10.08a.48.48 0 1 1-.96 0 .48.48 0 0 1 .96 0zM27.36 10.08a.48.48 0 1 1-.96 0 .48.48 0 0 1 .96 0zM29.76 10.08a.48.48 0 1 1-.96 0 .48.48 0 0 1 .96 0zM.96 12.48a.48.48 0 1 1-.96 0 .48.48 0 0 1 .96 0zM3.36 12.48a.48.48 0 1 1-.96 0 .48.48 0 0 1 .96 0zM5.76 12.48a.48.48 0 1 1-.96 0 .48.48 0 0 1 .96 0zM8.16 12.48a.48.48 0 1 1-.96 0 .48.48 0 0 1 .96 0zM10.56 12.48a.48.48 0 1 1-.96 0 .48.48 0 0 1 .96 0zM12.96 12.48a.48.48 0 1 1-.96 0 .48.48 0 0 1 .96 0zM15.36 12.48a.48.48 0 1 1-.96 0 .48.48 0 0 1 .96 0zM17.76 12.48a.48.48 0 1 1-.96 0 .48.48 0 0 1 .96 0zM20.16 12.48a.48.48 0 1 1-.96 0 .48.48 0 0 1 .96 0zM22.56 12.48a.48.48 0 1 1-.96 0 .48.48 0 0 1 .96 0zM24.96 12.48a.48.48 0 1 1-.96 0 .48.48 0 0 1 .96 0zM27.36 12.48a.48.48 0 1 1-.96 0 .48.48 0 0 1 .96 0zM29.76 12.48a.48.48 0 1 1-.96 0 .48.48 0 0 1 .96 0zM.96 14.88a.48.48 0 1 1-.96 0 .48.48 0 0 1 .96 0zM3.36 14.88a.48.48 0 1 1-.96 0 .48.48 0 0 1 .96 0zM5.76 14.88a.48.48 0 1 1-.96 0 .48.48 0 0 1 .96 0zM8.16 14.88a.48.48 0 1 1-.96 0 .48.48 0 0 1 .96 0zM10.56 14.88a.48.48 0 1 1-.96 0 .48.48 0 0 1 .96 0zM12.96 14.88a.48.48 0 1 1-.96 0 .48.48 0 0 1 .96 0zM15.36 14.88a.48.48 0 1 1-.96 0 .48.48 0 0 1 .96 0zM17.76 14.88a.48.48 0 1 1-.96 0 .48.48 0 0 1 .96 0zM20.16 14.88a.48.48 0 1 1-.96 0 .48.48 0 0 1 .96 0zM22.56 14.88a.48.48 0 1 1-.96 0 .48.48 0 0 1 .96 0zM24.96 14.88a.48.48 0 1 1-.96 0 .48.48 0 0 1 .96 0zM27.36 14.88a.48.48 0 1 1-.96 0 .48.48 0 0 1 .96 0zM29.76 14.88a.48.48 0 1 1-.96 0 .48.48 0 0 1 .96 0zM.96 17.28a.48.48 0 1 1-.96 0 .48.48 0 0 1 .96 0zM3.36 17.28a.48.48 0 1 1-.96 0 .48.48 0 0 1 .96 0zM5.76 17.28a.48.48 0 1 1-.96 0 .48.48 0 0 1 .96 0zM8.16 17.28a.48.48 0 1 1-.96 0 .48.48 0 0 1 .96 0zM10.56 17.28a.48.48 0 1 1-.96 0 .48.48 0 0 1 .96 0zM12.96 17.28a.48.48 0 1 1-.96 0 .48.48 0 0 1 .96 0zM15.36 17.28a.48.48 0 1 1-.96 0 .48.48 0 0 1 .96 0zM17.76 17.28a.48.48 0 1 1-.96 0 .48.48 0 0 1 .96 0zM20.16 17.28a.48.48 0 1 1-.96 0 .48.48 0 0 1 .96 0zM22.56 17.28a.48.48 0 1 1-.96 0 .48.48 0 0 1 .96 0zM24.96 17.28a.48.48 0 1 1-.96 0 .48.48 0 0 1 .96 0zM27.36 17.28a.48.48 0 1 1-.96 0 .48.48 0 0 1 .96 0zM29.76 17.28a.48.48 0 1 1-.96 0 .48.48 0 0 1 .96 0zM.96 19.68a.48.48 0 1 1-.96 0 .48.48 0 0 1 .96 0zM3.36 19.68a.48.48 0 1 1-.96 0 .48.48 0 0 1 .96 0zM5.76 19.68a.48.48 0 1 1-.96 0 .48.48 0 0 1 .96 0zM8.16 19.68a.48.48 0 1 1-.96 0 .48.48 0 0 1 .96 0zM10.56 19.68a.48.48 0 1 1-.96 0 .48.48 0 0 1 .96 0zM12.96 19.68a.48.48 0 1 1-.96 0 .48.48 0 0 1 .96 0zM15.36 19.68a.48.48 0 1 1-.96 0 .48.48 0 0 1 .96 0zM17.76 19.68a.48.48 0 1 1-.96 0 .48.48 0 0 1 .96 0zM20.16 19.68a.48.48 0 1 1-.96 0 .48.48 0 0 1 .96 0zM22.56 19.68a.48.48 0 1 1-.96 0 .48.48 0 0 1 .96 0zM24.96 19.68a.48.48 0 1 1-.96 0 .48.48 0 0 1 .96 0zM27.36 19.68a.48.48 0 1 1-.96 0 .48.48 0 0 1 .96 0zM29.76 19.68a.48.48 0 1 1-.96 0 .48.48 0 0 1 .96 0zM.96 22.08a.48.48 0 1 1-.96 0 .48.48 0 0 1 .96 0zM3.36 22.08a.48.48 0 1 1-.96 0 .48.48 0 0 1 .96 0zM5.76 22.08a.48.48 0 1 1-.96 0 .48.48 0 0 1 .96 0zM8.16 22.08a.48.48 0 1 1-.96 0 .48.48 0 0 1 .96 0zM10.56 22.08a.48.48 0 1 1-.96 0 .48.48 0 0 1 .96 0zM12.96 22.08a.48.48 0 1 1-.96 0 .48.48 0 0 1 .96 0zM15.36 22.08a.48.48 0 1 1-.96 0 .48.48 0 0 1 .96 0zM17.76 22.08a.48.48 0 1 1-.96 0 .48.48 0 0 1 .96 0zM20.16 22.08a.48.48 0 1 1-.96 0 .48.48 0 0 1 .96 0zM22.56 22.08a.48.48 0 1 1-.96 0 .48.48 0 0 1 .96 0zM24.96 22.08a.48.48 0 1 1-.96 0 .48.48 0 0 1 .96 0zM27.36 22.08a.48.48 0 1 1-.96 0 .48.48 0 0 1 .96 0zM29.76 22.08a.48.48 0 1 1-.96 0 .48.48 0 0 1 .96 0zM.96 24.48a.48.48 0 1 1-.96 0 .48.48 0 0 1 .96 0zM3.36 24.48a.48.48 0 1 1-.96 0 .48.48 0 0 1 .96 0zM5.76 24.48a.48.48 0 1 1-.96 0 .48.48 0 0 1 .96 0zM8.16 24.48a.48.48 0 1 1-.96 0 .48.48 0 0 1 .96 0zM10.56 24.48a.48.48 0 1 1-.96 0 .48.48 0 0 1 .96 0zM12.96 24.48a.48.48 0 1 1-.96 0 .48.48 0 0 1 .96 0zM15.36 24.48a.48.48 0 1 1-.96 0 .48.48 0 0 1 .96 0zM17.76 24.48a.48.48 0 1 1-.96 0 .48.48 0 0 1 .96 0zM20.16 24.48a.48.48 0 1 1-.96 0 .48.48 0 0 1 .96 0zM22.56 24.48a.48.48 0 1 1-.96 0 .48.48 0 0 1 .96 0zM24.96 24.48a.48.48 0 1 1-.96 0 .48.48 0 0 1 .96 0zM27.36 24.48a.48.48 0 1 1-.96 0 .48.48 0 0 1 .96 0zM29.76 24.48a.48.48 0 1 1-.96 0 .48.48 0 0 1 .96 0zM.96 26.88a.48.48 0 1 1-.96 0 .48.48 0 0 1 .96 0zM3.36 26.88a.48.48 0 1 1-.96 0 .48.48 0 0 1 .96 0zM5.76 26.88a.48.48 0 1 1-.96 0 .48.48 0 0 1 .96 0zM8.16 26.88a.48.48 0 1 1-.96 0 .48.48 0 0 1 .96 0zM10.56 26.88a.48.48 0 1 1-.96 0 .48.48 0 0 1 .96 0zM12.96 26.88a.48.48 0 1 1-.96 0 .48.48 0 0 1 .96 0zM15.36 26.88a.48.48 0 1 1-.96 0 .48.48 0 0 1 .96 0zM17.76 26.88a.48.48 0 1 1-.96 0 .48.48 0 0 1 .96 0zM20.16 26.88a.48.48 0 1 1-.96 0 .48.48 0 0 1 .96 0zM22.56 26.88a.48.48 0 1 1-.96 0 .48.48 0 0 1 .96 0zM24.96 26.88a.48.48 0 1 1-.96 0 .48.48 0 0 1 .96 0zM27.36 26.88a.48.48 0 1 1-.96 0 .48.48 0 0 1 .96 0zM29.76 26.88a.48.48 0 1 1-.96 0 .48.48 0 0 1 .96 0zM.96 29.28a.48.48 0 1 1-.96 0 .48.48 0 0 1 .96 0zM3.36 29.28a.48.48 0 1 1-.96 0 .48.48 0 0 1 .96 0zM5.76 29.28a.48.48 0 1 1-.96 0 .48.48 0 0 1 .96 0zM8.16 29.28a.48.48 0 1 1-.96 0 .48.48 0 0 1 .96 0zM10.56 29.28a.48.48 0 1 1-.96 0 .48.48 0 0 1 .96 0zM12.96 29.28a.48.48 0 1 1-.96 0 .48.48 0 0 1 .96 0zM15.36 29.28a.48.48 0 1 1-.96 0 .48.48 0 0 1 .96 0zM17.76 29.28a.48.48 0 1 1-.96 0 .48.48 0 0 1 .96 0zM20.16 29.28a.48.48 0 1 1-.96 0 .48.48 0 0 1 .96 0zM22.56 29.28a.48.48 0 1 1-.96 0 .48.48 0 0 1 .96 0zM24.96 29.28a.48.48 0 1 1-.96 0 .48.48 0 0 1 .96 0zM27.36 29.28a.48.48 0 1 1-.96 0 .48.48 0 0 1 .96 0zM29.76 29.28a.48.48 0 1 1-.96 0 .48.48 0 0 1 .96 0z"/>
    </symbol>
    <symbol id="icon-Web--Mobile-Apps" viewBox="0 0 32 32">
      <path fill="none" stroke="#14213d" stroke-linecap="round" stroke-linejoin="round" stroke-width="1.5" d="M6.4 8.8a12.928 12.928 0 0 0 5.893 2.8c1.217.271 2.46.405 3.707.4 1.247.005 2.49-.129 3.707-.4A12.923 12.923 0 0 0 25.6 8.8M28 16a12.007 12.007 0 0 1-7.407 11.087 11.992 11.992 0 0 1-13.077-2.601A11.999 11.999 0 1 1 24.487 7.517a12.003 12.003 0 0 1 3.515 8.485v0zm-2.4 7.2a12.928 12.928 0 0 0-5.893-2.8 17.32 17.32 0 0 0-7.413 0 12.928 12.928 0 0 0-5.893 2.8h19.2z" style="stroke:var(--color3, #14213d)"/>
      <path fill="none" stroke="#fca311" stroke-linecap="round" stroke-linejoin="round" stroke-width="1.5" d="M16 28c2.209 0 4-5.373 4-12S18.209 4 16 4s-4 5.373-4 12 1.791 12 4 12z" style="stroke:var(--color2, #fca311)"/>
    </symbol>
  </defs>
</svg>
