<svg xmlns="http://www.w3.org/2000/svg" aria-hidden="true" style="position:absolute;width:0;height:0;overflow:hidden">
  <defs>
    <symbol id="icon-Dot-Grid" viewBox="0 0 31 32">
      <path d="M1.92.96A.96.96 0 1 1 0 .96a.96.96 0 0 1 1.92 0zM6.72.96a.96.96 0 1 1-1.92 0 .96.96 0 0 1 1.92 0zM11.52.96a.96.96 0 1 1-1.92 0 .96.96 0 0 1 1.92 0zM16.32.96a.96.96 0 1 1-1.92 0 .96.96 0 0 1 1.92 0zM21.12.96a.96.96 0 1 1-1.92 0 .96.96 0 0 1 1.92 0zM25.92.96a.96.96 0 1 1-1.92 0 .96.96 0 0 1 1.92 0zM30.72.96a.96.96 0 1 1-1.92 0 .96.96 0 0 1 1.92 0zM1.92 5.76a.96.96 0 1 1-1.92 0 .96.96 0 0 1 1.92 0zM6.72 5.76a.96.96 0 1 1-1.92 0 .96.96 0 0 1 1.92 0zM11.52 5.76a.96.96 0 1 1-1.92 0 .96.96 0 0 1 1.92 0zM16.32 5.76a.96.96 0 1 1-1.92 0 .96.96 0 0 1 1.92 0zM21.12 5.76a.96.96 0 1 1-1.92 0 .96.96 0 0 1 1.92 0zM25.92 5.76a.96.96 0 1 1-1.92 0 .96.96 0 0 1 1.92 0zM30.72 5.76a.96.96 0 1 1-1.92 0 .96.96 0 0 1 1.92 0zM1.92 10.56a.96.96 0 1 1-1.92 0 .96.96 0 0 1 1.92 0zM6.72 10.56a.96.96 0 1 1-1.92 0 .96.96 0 0 1 1.92 0zM11.52 10.56a.96.96 0 1 1-1.92 0 .96.96 0 0 1 1.92 0zM16.32 10.56a.96.96 0 1 1-1.92 0 .96.96 0 0 1 1.92 0zM21.12 10.56a.96.96 0 1 1-1.92 0 .96.96 0 0 1 1.92 0zM25.92 10.56a.96.96 0 1 1-1.92 0 .96.96 0 0 1 1.92 0zM30.72 10.56a.96.96 0 1 1-1.92 0 .96.96 0 0 1 1.92 0zM1.92 15.36a.96.96 0 1 1-1.92 0 .96.96 0 0 1 1.92 0zM6.72 15.36a.96.96 0 1 1-1.92 0 .96.96 0 0 1 1.92 0zM11.52 15.36a.96.96 0 1 1-1.92 0 .96.96 0 0 1 1.92 0zM16.32 15.36a.96.96 0 1 1-1.92 0 .96.96 0 0 1 1.92 0zM21.12 15.36a.96.96 0 1 1-1.92 0 .96.96 0 0 1 1.92 0zM25.92 15.36a.96.96 0 1 1-1.92 0 .96.96 0 0 1 1.92 0zM30.72 15.36a.96.96 0 1 1-1.92 0 .96.96 0 0 1 1.92 0zM1.92 20.16a.96.96 0 1 1-1.92 0 .96.96 0 0 1 1.92 0zM6.72 20.16a.96.96 0 1 1-1.92 0 .96.96 0 0 1 1.92 0zM11.52 20.16a.96.96 0 1 1-1.92 0 .96.96 0 0 1 1.92 0zM16.32 20.16a.96.96 0 1 1-1.92 0 .96.96 0 0 1 1.92 0zM21.12 20.16a.96.96 0 1 1-1.92 0 .96.96 0 0 1 1.92 0zM25.92 20.16a.96.96 0 1 1-1.92 0 .96.96 0 0 1 1.92 0zM30.72 20.16a.96.96 0 1 1-1.92 0 .96.96 0 0 1 1.92 0zM1.92 24.96a.96.96 0 1 1-1.92 0 .96.96 0 0 1 1.92 0zM6.72 24.96a.96.96 0 1 1-1.92 0 .96.96 0 0 1 1.92 0zM11.52 24.96a.96.96 0 1 1-1.92 0 .96.96 0 0 1 1.92 0zM16.32 24.96a.96.96 0 1 1-1.92 0 .96.96 0 0 1 1.92 0zM21.12 24.96a.96.96 0 1 1-1.92 0 .96.96 0 0 1 1.92 0zM25.92 24.96a.96.96 0 1 1-1.92 0 .96.96 0 0 1 1.92 0zM30.72 24.96a.96.96 0 1 1-1.92 0 .96.96 0 0 1 1.92 0zM1.92 29.76a.96.96 0 1 1-1.92 0 .96.96 0 0 1 1.92 0zM6.72 29.76a.96.96 0 1 1-1.92 0 .96.96 0 0 1 1.92 0zM11.52 29.76a.96.96 0 1 1-1.92 0 .96.96 0 0 1 1.92 0zM16.32 29.76a.96.96 0 1 1-1.92 0 .96.96 0 0 1 1.92 0zM21.12 29.76a.96.96 0 1 1-1.92 0 .96.96 0 0 1 1.92 0zM25.92 29.76a.96.96 0 1 1-1.92 0 .96.96 0 0 1 1.92 0zM30.72 29.76a.96.96 0 1 1-1.92 0 .96.96 0 0 1 1.92 0z"/>
    </symbol>
  </defs>
</svg>
