<svg xmlns="http://www.w3.org/2000/svg" aria-hidden="true" style="position:absolute;width:0;height:0;overflow:hidden">
  <defs>
    <symbol id="icon-Ball" viewBox="0 0 32 32">
      <path fill="#fca311" d="M32 16c0 8.837-7.163 16-16 16S0 24.837 0 16 7.163 0 16 0s16 7.163 16 16z" opacity=".5" style="fill:var(--color1, #fca311)"/>
    </symbol>
    <symbol id="icon-Dot-Grid" viewBox="0 0 31 32">
      <path fill="#fca311" d="M.96.48a.48.48 0 1 1-.96 0 .48.48 0 0 1 .96 0zM3.36.48a.48.48 0 1 1-.96 0 .48.48 0 0 1 .96 0zM5.76.48a.48.48 0 1 1-.96 0 .48.48 0 0 1 .96 0zM8.16.48a.48.48 0 1 1-.96 0 .48.48 0 0 1 .96 0zM10.56.48a.48.48 0 1 1-.96 0 .48.48 0 0 1 .96 0zM12.96.48a.48.48 0 1 1-.96 0 .48.48 0 0 1 .96 0zM15.36.48a.48.48 0 1 1-.96 0 .48.48 0 0 1 .96 0zM17.76.48a.48.48 0 1 1-.96 0 .48.48 0 0 1 .96 0zM20.16.48a.48.48 0 1 1-.96 0 .48.48 0 0 1 .96 0zM22.56.48a.48.48 0 1 1-.96 0 .48.48 0 0 1 .96 0zM24.96.48a.48.48 0 1 1-.96 0 .48.48 0 0 1 .96 0zM27.36.48a.48.48 0 1 1-.96 0 .48.48 0 0 1 .96 0zM29.76.48a.48.48 0 1 1-.96 0 .48.48 0 0 1 .96 0zM.96 2.88a.48.48 0 1 1-.96 0 .48.48 0 0 1 .96 0zM3.36 2.88a.48.48 0 1 1-.96 0 .48.48 0 0 1 .96 0zM5.76 2.88a.48.48 0 1 1-.96 0 .48.48 0 0 1 .96 0zM8.16 2.88a.48.48 0 1 1-.96 0 .48.48 0 0 1 .96 0zM10.56 2.88a.48.48 0 1 1-.96 0 .48.48 0 0 1 .96 0zM12.96 2.88a.48.48 0 1 1-.96 0 .48.48 0 0 1 .96 0zM15.36 2.88a.48.48 0 1 1-.96 0 .48.48 0 0 1 .96 0zM17.76 2.88a.48.48 0 1 1-.96 0 .48.48 0 0 1 .96 0zM20.16 2.88a.48.48 0 1 1-.96 0 .48.48 0 0 1 .96 0zM22.56 2.88a.48.48 0 1 1-.96 0 .48.48 0 0 1 .96 0zM24.96 2.88a.48.48 0 1 1-.96 0 .48.48 0 0 1 .96 0zM27.36 2.88a.48.48 0 1 1-.96 0 .48.48 0 0 1 .96 0zM29.76 2.88a.48.48 0 1 1-.96 0 .48.48 0 0 1 .96 0zM.96 5.28a.48.48 0 1 1-.96 0 .48.48 0 0 1 .96 0zM3.36 5.28a.48.48 0 1 1-.96 0 .48.48 0 0 1 .96 0zM5.76 5.28a.48.48 0 1 1-.96 0 .48.48 0 0 1 .96 0zM8.16 5.28a.48.48 0 1 1-.96 0 .48.48 0 0 1 .96 0zM10.56 5.28a.48.48 0 1 1-.96 0 .48.48 0 0 1 .96 0zM12.96 5.28a.48.48 0 1 1-.96 0 .48.48 0 0 1 .96 0zM15.36 5.28a.48.48 0 1 1-.96 0 .48.48 0 0 1 .96 0zM17.76 5.28a.48.48 0 1 1-.96 0 .48.48 0 0 1 .96 0zM20.16 5.28a.48.48 0 1 1-.96 0 .48.48 0 0 1 .96 0zM22.56 5.28a.48.48 0 1 1-.96 0 .48.48 0 0 1 .96 0zM24.96 5.28a.48.48 0 1 1-.96 0 .48.48 0 0 1 .96 0zM27.36 5.28a.48.48 0 1 1-.96 0 .48.48 0 0 1 .96 0zM29.76 5.28a.48.48 0 1 1-.96 0 .48.48 0 0 1 .96 0zM.96 7.68a.48.48 0 1 1-.96 0 .48.48 0 0 1 .96 0zM3.36 7.68a.48.48 0 1 1-.96 0 .48.48 0 0 1 .96 0zM5.76 7.68a.48.48 0 1 1-.96 0 .48.48 0 0 1 .96 0zM8.16 7.68a.48.48 0 1 1-.96 0 .48.48 0 0 1 .96 0zM10.56 7.68a.48.48 0 1 1-.96 0 .48.48 0 0 1 .96 0zM12.96 7.68a.48.48 0 1 1-.96 0 .48.48 0 0 1 .96 0zM15.36 7.68a.48.48 0 1 1-.96 0 .48.48 0 0 1 .96 0zM17.76 7.68a.48.48 0 1 1-.96 0 .48.48 0 0 1 .96 0zM20.16 7.68a.48.48 0 1 1-.96 0 .48.48 0 0 1 .96 0zM22.56 7.68a.48.48 0 1 1-.96 0 .48.48 0 0 1 .96 0zM24.96 7.68a.48.48 0 1 1-.96 0 .48.48 0 0 1 .96 0zM27.36 7.68a.48.48 0 1 1-.96 0 .48.48 0 0 1 .96 0zM29.76 7.68a.48.48 0 1 1-.96 0 .48.48 0 0 1 .96 0zM.96 10.08a.48.48 0 1 1-.96 0 .48.48 0 0 1 .96 0zM3.36 10.08a.48.48 0 1 1-.96 0 .48.48 0 0 1 .96 0zM5.76 10.08a.48.48 0 1 1-.96 0 .48.48 0 0 1 .96 0zM8.16 10.08a.48.48 0 1 1-.96 0 .48.48 0 0 1 .96 0zM10.56 10.08a.48.48 0 1 1-.96 0 .48.48 0 0 1 .96 0zM12.96 10.08a.48.48 0 1 1-.96 0 .48.48 0 0 1 .96 0zM15.36 10.08a.48.48 0 1 1-.96 0 .48.48 0 0 1 .96 0zM17.76 10.08a.48.48 0 1 1-.96 0 .48.48 0 0 1 .96 0zM20.16 10.08a.48.48 0 1 1-.96 0 .48.48 0 0 1 .96 0zM22.56 10.08a.48.48 0 1 1-.96 0 .48.48 0 0 1 .96 0zM24.96 10.08a.48.48 0 1 1-.96 0 .48.48 0 0 1 .96 0zM27.36 10.08a.48.48 0 1 1-.96 0 .48.48 0 0 1 .96 0zM29.76 10.08a.48.48 0 1 1-.96 0 .48.48 0 0 1 .96 0zM.96 12.48a.48.48 0 1 1-.96 0 .48.48 0 0 1 .96 0zM3.36 12.48a.48.48 0 1 1-.96 0 .48.48 0 0 1 .96 0zM5.76 12.48a.48.48 0 1 1-.96 0 .48.48 0 0 1 .96 0zM8.16 12.48a.48.48 0 1 1-.96 0 .48.48 0 0 1 .96 0zM10.56 12.48a.48.48 0 1 1-.96 0 .48.48 0 0 1 .96 0zM12.96 12.48a.48.48 0 1 1-.96 0 .48.48 0 0 1 .96 0zM15.36 12.48a.48.48 0 1 1-.96 0 .48.48 0 0 1 .96 0zM17.76 12.48a.48.48 0 1 1-.96 0 .48.48 0 0 1 .96 0zM20.16 12.48a.48.48 0 1 1-.96 0 .48.48 0 0 1 .96 0zM22.56 12.48a.48.48 0 1 1-.96 0 .48.48 0 0 1 .96 0zM24.96 12.48a.48.48 0 1 1-.96 0 .48.48 0 0 1 .96 0zM27.36 12.48a.48.48 0 1 1-.96 0 .48.48 0 0 1 .96 0zM29.76 12.48a.48.48 0 1 1-.96 0 .48.48 0 0 1 .96 0zM.96 14.88a.48.48 0 1 1-.96 0 .48.48 0 0 1 .96 0zM3.36 14.88a.48.48 0 1 1-.96 0 .48.48 0 0 1 .96 0zM5.76 14.88a.48.48 0 1 1-.96 0 .48.48 0 0 1 .96 0zM8.16 14.88a.48.48 0 1 1-.96 0 .48.48 0 0 1 .96 0zM10.56 14.88a.48.48 0 1 1-.96 0 .48.48 0 0 1 .96 0zM12.96 14.88a.48.48 0 1 1-.96 0 .48.48 0 0 1 .96 0zM15.36 14.88a.48.48 0 1 1-.96 0 .48.48 0 0 1 .96 0zM17.76 14.88a.48.48 0 1 1-.96 0 .48.48 0 0 1 .96 0zM20.16 14.88a.48.48 0 1 1-.96 0 .48.48 0 0 1 .96 0zM22.56 14.88a.48.48 0 1 1-.96 0 .48.48 0 0 1 .96 0zM24.96 14.88a.48.48 0 1 1-.96 0 .48.48 0 0 1 .96 0zM27.36 14.88a.48.48 0 1 1-.96 0 .48.48 0 0 1 .96 0zM29.76 14.88a.48.48 0 1 1-.96 0 .48.48 0 0 1 .96 0zM.96 17.28a.48.48 0 1 1-.96 0 .48.48 0 0 1 .96 0zM3.36 17.28a.48.48 0 1 1-.96 0 .48.48 0 0 1 .96 0zM5.76 17.28a.48.48 0 1 1-.96 0 .48.48 0 0 1 .96 0zM8.16 17.28a.48.48 0 1 1-.96 0 .48.48 0 0 1 .96 0zM10.56 17.28a.48.48 0 1 1-.96 0 .48.48 0 0 1 .96 0zM12.96 17.28a.48.48 0 1 1-.96 0 .48.48 0 0 1 .96 0zM15.36 17.28a.48.48 0 1 1-.96 0 .48.48 0 0 1 .96 0zM17.76 17.28a.48.48 0 1 1-.96 0 .48.48 0 0 1 .96 0zM20.16 17.28a.48.48 0 1 1-.96 0 .48.48 0 0 1 .96 0zM22.56 17.28a.48.48 0 1 1-.96 0 .48.48 0 0 1 .96 0zM24.96 17.28a.48.48 0 1 1-.96 0 .48.48 0 0 1 .96 0zM27.36 17.28a.48.48 0 1 1-.96 0 .48.48 0 0 1 .96 0zM29.76 17.28a.48.48 0 1 1-.96 0 .48.48 0 0 1 .96 0zM.96 19.68a.48.48 0 1 1-.96 0 .48.48 0 0 1 .96 0zM3.36 19.68a.48.48 0 1 1-.96 0 .48.48 0 0 1 .96 0zM5.76 19.68a.48.48 0 1 1-.96 0 .48.48 0 0 1 .96 0zM8.16 19.68a.48.48 0 1 1-.96 0 .48.48 0 0 1 .96 0zM10.56 19.68a.48.48 0 1 1-.96 0 .48.48 0 0 1 .96 0zM12.96 19.68a.48.48 0 1 1-.96 0 .48.48 0 0 1 .96 0zM15.36 19.68a.48.48 0 1 1-.96 0 .48.48 0 0 1 .96 0zM17.76 19.68a.48.48 0 1 1-.96 0 .48.48 0 0 1 .96 0zM20.16 19.68a.48.48 0 1 1-.96 0 .48.48 0 0 1 .96 0zM22.56 19.68a.48.48 0 1 1-.96 0 .48.48 0 0 1 .96 0zM24.96 19.68a.48.48 0 1 1-.96 0 .48.48 0 0 1 .96 0zM27.36 19.68a.48.48 0 1 1-.96 0 .48.48 0 0 1 .96 0zM29.76 19.68a.48.48 0 1 1-.96 0 .48.48 0 0 1 .96 0zM.96 22.08a.48.48 0 1 1-.96 0 .48.48 0 0 1 .96 0zM3.36 22.08a.48.48 0 1 1-.96 0 .48.48 0 0 1 .96 0zM5.76 22.08a.48.48 0 1 1-.96 0 .48.48 0 0 1 .96 0zM8.16 22.08a.48.48 0 1 1-.96 0 .48.48 0 0 1 .96 0zM10.56 22.08a.48.48 0 1 1-.96 0 .48.48 0 0 1 .96 0zM12.96 22.08a.48.48 0 1 1-.96 0 .48.48 0 0 1 .96 0zM15.36 22.08a.48.48 0 1 1-.96 0 .48.48 0 0 1 .96 0zM17.76 22.08a.48.48 0 1 1-.96 0 .48.48 0 0 1 .96 0zM20.16 22.08a.48.48 0 1 1-.96 0 .48.48 0 0 1 .96 0zM22.56 22.08a.48.48 0 1 1-.96 0 .48.48 0 0 1 .96 0zM24.96 22.08a.48.48 0 1 1-.96 0 .48.48 0 0 1 .96 0zM27.36 22.08a.48.48 0 1 1-.96 0 .48.48 0 0 1 .96 0zM29.76 22.08a.48.48 0 1 1-.96 0 .48.48 0 0 1 .96 0zM.96 24.48a.48.48 0 1 1-.96 0 .48.48 0 0 1 .96 0zM3.36 24.48a.48.48 0 1 1-.96 0 .48.48 0 0 1 .96 0zM5.76 24.48a.48.48 0 1 1-.96 0 .48.48 0 0 1 .96 0zM8.16 24.48a.48.48 0 1 1-.96 0 .48.48 0 0 1 .96 0zM10.56 24.48a.48.48 0 1 1-.96 0 .48.48 0 0 1 .96 0zM12.96 24.48a.48.48 0 1 1-.96 0 .48.48 0 0 1 .96 0zM15.36 24.48a.48.48 0 1 1-.96 0 .48.48 0 0 1 .96 0zM17.76 24.48a.48.48 0 1 1-.96 0 .48.48 0 0 1 .96 0zM20.16 24.48a.48.48 0 1 1-.96 0 .48.48 0 0 1 .96 0zM22.56 24.48a.48.48 0 1 1-.96 0 .48.48 0 0 1 .96 0zM24.96 24.48a.48.48 0 1 1-.96 0 .48.48 0 0 1 .96 0zM27.36 24.48a.48.48 0 1 1-.96 0 .48.48 0 0 1 .96 0zM29.76 24.48a.48.48 0 1 1-.96 0 .48.48 0 0 1 .96 0zM.96 26.88a.48.48 0 1 1-.96 0 .48.48 0 0 1 .96 0zM3.36 26.88a.48.48 0 1 1-.96 0 .48.48 0 0 1 .96 0zM5.76 26.88a.48.48 0 1 1-.96 0 .48.48 0 0 1 .96 0zM8.16 26.88a.48.48 0 1 1-.96 0 .48.48 0 0 1 .96 0zM10.56 26.88a.48.48 0 1 1-.96 0 .48.48 0 0 1 .96 0zM12.96 26.88a.48.48 0 1 1-.96 0 .48.48 0 0 1 .96 0zM15.36 26.88a.48.48 0 1 1-.96 0 .48.48 0 0 1 .96 0zM17.76 26.88a.48.48 0 1 1-.96 0 .48.48 0 0 1 .96 0zM20.16 26.88a.48.48 0 1 1-.96 0 .48.48 0 0 1 .96 0zM22.56 26.88a.48.48 0 1 1-.96 0 .48.48 0 0 1 .96 0zM24.96 26.88a.48.48 0 1 1-.96 0 .48.48 0 0 1 .96 0zM27.36 26.88a.48.48 0 1 1-.96 0 .48.48 0 0 1 .96 0zM29.76 26.88a.48.48 0 1 1-.96 0 .48.48 0 0 1 .96 0zM.96 29.28a.48.48 0 1 1-.96 0 .48.48 0 0 1 .96 0zM3.36 29.28a.48.48 0 1 1-.96 0 .48.48 0 0 1 .96 0zM5.76 29.28a.48.48 0 1 1-.96 0 .48.48 0 0 1 .96 0zM8.16 29.28a.48.48 0 1 1-.96 0 .48.48 0 0 1 .96 0zM10.56 29.28a.48.48 0 1 1-.96 0 .48.48 0 0 1 .96 0zM12.96 29.28a.48.48 0 1 1-.96 0 .48.48 0 0 1 .96 0zM15.36 29.28a.48.48 0 1 1-.96 0 .48.48 0 0 1 .96 0zM17.76 29.28a.48.48 0 1 1-.96 0 .48.48 0 0 1 .96 0zM20.16 29.28a.48.48 0 1 1-.96 0 .48.48 0 0 1 .96 0zM22.56 29.28a.48.48 0 1 1-.96 0 .48.48 0 0 1 .96 0zM24.96 29.28a.48.48 0 1 1-.96 0 .48.48 0 0 1 .96 0zM27.36 29.28a.48.48 0 1 1-.96 0 .48.48 0 0 1 .96 0zM29.76 29.28a.48.48 0 1 1-.96 0 .48.48 0 0 1 .96 0z" style="fill:var(--color1, #fca311)"/>
    </symbol>
    <symbol fill="#14213d80" id="icon-Semicircle" viewBox="0 0 64 32">
      <path d="M64 0A32.001 32.001 0 0 1 9.373 22.627 32 32 0 0 1 0 0h64z"/>
    </symbol>
  </defs>
</svg>
